<mxfile host="65bd71144e">
    <diagram id="C5RBs43oDa-KdzZeNtuy" name="Page-1">
        <mxGraphModel dx="4502" dy="3532" grid="0" gridSize="10" guides="1" tooltips="1" connect="1" arrows="1" fold="1" page="0" pageScale="1" pageWidth="827" pageHeight="1169" math="0" shadow="0">
            <root>
                <mxCell id="WIyWlLk6GJQsqaUBKTNV-0"/>
                <mxCell id="WIyWlLk6GJQsqaUBKTNV-1" parent="WIyWlLk6GJQsqaUBKTNV-0"/>
                <mxCell id="SNIHwiunDkbFm7c5sR0U-5" value="User" style="swimlane;fontStyle=1;align=center;verticalAlign=top;childLayout=stackLayout;horizontal=1;startSize=26;horizontalStack=0;resizeParent=1;resizeParentMax=0;resizeLast=0;collapsible=1;marginBottom=0;fillColor=#FFFFFF;fontColor=#000000;" parent="WIyWlLk6GJQsqaUBKTNV-1" vertex="1">
                    <mxGeometry x="-141" y="477" width="298" height="164" as="geometry">
                        <mxRectangle x="80" y="60" width="60" height="26" as="alternateBounds"/>
                    </mxGeometry>
                </mxCell>
                <mxCell id="SNIHwiunDkbFm7c5sR0U-9" value="+ Name: string" style="text;strokeColor=none;align=left;verticalAlign=top;spacingLeft=4;spacingRight=4;overflow=hidden;rotatable=0;points=[[0,0.5],[1,0.5]];portConstraint=eastwest;fillColor=none;" parent="SNIHwiunDkbFm7c5sR0U-5" vertex="1">
                    <mxGeometry y="26" width="298" height="26" as="geometry"/>
                </mxCell>
                <mxCell id="285" value="+ ContactInfo: ContactInfo" style="text;strokeColor=none;align=left;verticalAlign=top;spacingLeft=4;spacingRight=4;overflow=hidden;rotatable=0;points=[[0,0.5],[1,0.5]];portConstraint=eastwest;fillColor=none;" parent="SNIHwiunDkbFm7c5sR0U-5" vertex="1">
                    <mxGeometry y="52" width="298" height="26" as="geometry"/>
                </mxCell>
                <mxCell id="Xsf8VFBO3j0tMAS3_5td-28" value="+ Session: UserSession" style="text;strokeColor=none;align=left;verticalAlign=top;spacingLeft=4;spacingRight=4;overflow=hidden;rotatable=0;points=[[0,0.5],[1,0.5]];portConstraint=eastwest;fillColor=none;" parent="SNIHwiunDkbFm7c5sR0U-5" vertex="1">
                    <mxGeometry y="78" width="298" height="26" as="geometry"/>
                </mxCell>
                <mxCell id="SNIHwiunDkbFm7c5sR0U-7" value="" style="line;strokeWidth=1;align=left;verticalAlign=middle;spacingTop=-1;spacingLeft=3;spacingRight=3;rotatable=0;labelPosition=right;points=[];portConstraint=eastwest;fillColor=none;" parent="SNIHwiunDkbFm7c5sR0U-5" vertex="1">
                    <mxGeometry y="104" width="298" height="8" as="geometry"/>
                </mxCell>
                <mxCell id="0" value="+ SendMessage(string): void" style="text;strokeColor=none;align=left;verticalAlign=top;spacingLeft=4;spacingRight=4;overflow=hidden;rotatable=0;points=[[0,0.5],[1,0.5]];portConstraint=eastwest;fillColor=none;" parent="SNIHwiunDkbFm7c5sR0U-5" vertex="1">
                    <mxGeometry y="112" width="298" height="26" as="geometry"/>
                </mxCell>
                <mxCell id="332" value="+ ReceiveMessage(string, NotificationManager): void" style="text;strokeColor=none;align=left;verticalAlign=top;spacingLeft=4;spacingRight=4;overflow=hidden;rotatable=0;points=[[0,0.5],[1,0.5]];portConstraint=eastwest;fillColor=none;" parent="SNIHwiunDkbFm7c5sR0U-5" vertex="1">
                    <mxGeometry y="138" width="298" height="26" as="geometry"/>
                </mxCell>
                <mxCell id="SNIHwiunDkbFm7c5sR0U-15" value="UserSession" style="swimlane;fontStyle=1;align=center;verticalAlign=top;childLayout=stackLayout;horizontal=1;startSize=26;horizontalStack=0;resizeParent=1;resizeParentMax=0;resizeLast=0;collapsible=1;marginBottom=0;fillColor=#FFFFFF;fontColor=#000000;" parent="WIyWlLk6GJQsqaUBKTNV-1" vertex="1">
                    <mxGeometry x="573" y="490" width="329" height="138" as="geometry">
                        <mxRectangle x="684" y="-24" width="110" height="26" as="alternateBounds"/>
                    </mxGeometry>
                </mxCell>
                <mxCell id="SNIHwiunDkbFm7c5sR0U-16" value="+ User: User" style="text;strokeColor=none;align=left;verticalAlign=top;spacingLeft=4;spacingRight=4;overflow=hidden;rotatable=0;points=[[0,0.5],[1,0.5]];portConstraint=eastwest;fillColor=none;" parent="SNIHwiunDkbFm7c5sR0U-15" vertex="1">
                    <mxGeometry y="26" width="329" height="26" as="geometry"/>
                </mxCell>
                <mxCell id="Xsf8VFBO3j0tMAS3_5td-1" value="+ State: IState" style="text;strokeColor=none;align=left;verticalAlign=top;spacingLeft=4;spacingRight=4;overflow=hidden;rotatable=0;points=[[0,0.5],[1,0.5]];portConstraint=eastwest;fillColor=none;" parent="SNIHwiunDkbFm7c5sR0U-15" vertex="1">
                    <mxGeometry y="52" width="329" height="26" as="geometry"/>
                </mxCell>
                <mxCell id="SNIHwiunDkbFm7c5sR0U-17" value="" style="line;strokeWidth=1;align=left;verticalAlign=middle;spacingTop=-1;spacingLeft=3;spacingRight=3;rotatable=0;labelPosition=right;points=[];portConstraint=eastwest;fillColor=none;" parent="SNIHwiunDkbFm7c5sR0U-15" vertex="1">
                    <mxGeometry y="78" width="329" height="8" as="geometry"/>
                </mxCell>
                <mxCell id="SNIHwiunDkbFm7c5sR0U-18" value="+ ReceiveMessage(string, NotificationManager): void" style="text;strokeColor=none;align=left;verticalAlign=top;spacingLeft=4;spacingRight=4;overflow=hidden;rotatable=0;points=[[0,0.5],[1,0.5]];portConstraint=eastwest;fillColor=none;" parent="SNIHwiunDkbFm7c5sR0U-15" vertex="1">
                    <mxGeometry y="86" width="329" height="26" as="geometry"/>
                </mxCell>
                <mxCell id="333" value="- sendMessage(string): void" style="text;strokeColor=none;align=left;verticalAlign=top;spacingLeft=4;spacingRight=4;overflow=hidden;rotatable=0;points=[[0,0.5],[1,0.5]];portConstraint=eastwest;fillColor=none;" parent="SNIHwiunDkbFm7c5sR0U-15" vertex="1">
                    <mxGeometry y="112" width="329" height="26" as="geometry"/>
                </mxCell>
                <mxCell id="SNIHwiunDkbFm7c5sR0U-23" value="NotificationManager" style="swimlane;fontStyle=1;align=center;verticalAlign=top;childLayout=stackLayout;horizontal=1;startSize=26;horizontalStack=0;resizeParent=1;resizeParentMax=0;resizeLast=0;collapsible=1;marginBottom=0;fillColor=#FFFFFF;fontColor=#000000;" parent="WIyWlLk6GJQsqaUBKTNV-1" vertex="1">
                    <mxGeometry x="183" y="130" width="290" height="86" as="geometry">
                        <mxRectangle x="530" y="280" width="150" height="26" as="alternateBounds"/>
                    </mxGeometry>
                </mxCell>
                <mxCell id="SNIHwiunDkbFm7c5sR0U-26" value="+ Instance: NotificationManager" style="text;strokeColor=none;align=left;verticalAlign=top;spacingLeft=4;spacingRight=4;overflow=hidden;rotatable=0;points=[[0,0.5],[1,0.5]];portConstraint=eastwest;fillColor=none;fontStyle=4" parent="SNIHwiunDkbFm7c5sR0U-23" vertex="1">
                    <mxGeometry y="26" width="290" height="26" as="geometry"/>
                </mxCell>
                <mxCell id="SNIHwiunDkbFm7c5sR0U-25" value="" style="line;strokeWidth=1;align=left;verticalAlign=middle;spacingTop=-1;spacingLeft=3;spacingRight=3;rotatable=0;labelPosition=right;points=[];portConstraint=eastwest;fillColor=none;" parent="SNIHwiunDkbFm7c5sR0U-23" vertex="1">
                    <mxGeometry y="52" width="290" height="8" as="geometry"/>
                </mxCell>
                <mxCell id="Xsf8VFBO3j0tMAS3_5td-30" value="+ SendNotification(User, Func&lt;INotification&gt;): void" style="text;strokeColor=none;align=left;verticalAlign=top;spacingLeft=4;spacingRight=4;overflow=hidden;rotatable=0;points=[[0,0.5],[1,0.5]];portConstraint=eastwest;fillColor=none;" parent="SNIHwiunDkbFm7c5sR0U-23" vertex="1">
                    <mxGeometry y="60" width="290" height="26" as="geometry"/>
                </mxCell>
                <mxCell id="Xsf8VFBO3j0tMAS3_5td-4" value="" style="endArrow=open;endSize=12;dashed=1;html=1;rounded=0;" parent="WIyWlLk6GJQsqaUBKTNV-1" source="SNIHwiunDkbFm7c5sR0U-15" target="35" edge="1">
                    <mxGeometry x="0.0045" y="105" width="160" relative="1" as="geometry">
                        <mxPoint x="238" y="797" as="sourcePoint"/>
                        <mxPoint x="528" y="559" as="targetPoint"/>
                        <mxPoint as="offset"/>
                    </mxGeometry>
                </mxCell>
                <mxCell id="Xsf8VFBO3j0tMAS3_5td-5" value="" style="endArrow=open;endSize=12;dashed=1;html=1;rounded=0;" parent="WIyWlLk6GJQsqaUBKTNV-1" source="35" target="SNIHwiunDkbFm7c5sR0U-23" edge="1">
                    <mxGeometry x="0.0045" y="105" width="160" relative="1" as="geometry">
                        <mxPoint x="328" y="309" as="sourcePoint"/>
                        <mxPoint x="91.65000000000009" y="727" as="targetPoint"/>
                        <mxPoint as="offset"/>
                    </mxGeometry>
                </mxCell>
                <mxCell id="Xsf8VFBO3j0tMAS3_5td-7" value="" style="endArrow=open;endSize=12;dashed=1;html=1;rounded=0;" parent="WIyWlLk6GJQsqaUBKTNV-1" source="SNIHwiunDkbFm7c5sR0U-23" target="33" edge="1">
                    <mxGeometry x="0.0045" y="105" width="160" relative="1" as="geometry">
                        <mxPoint x="298" y="977" as="sourcePoint"/>
                        <mxPoint x="88.00000000000011" y="393" as="targetPoint"/>
                        <mxPoint as="offset"/>
                    </mxGeometry>
                </mxCell>
                <mxCell id="Xsf8VFBO3j0tMAS3_5td-24" value="" style="endArrow=open;endSize=12;dashed=1;html=1;rounded=0;" parent="WIyWlLk6GJQsqaUBKTNV-1" source="309" target="262" edge="1">
                    <mxGeometry x="0.0045" y="105" width="160" relative="1" as="geometry">
                        <mxPoint x="1164.999999999999" y="769" as="sourcePoint"/>
                        <mxPoint x="840" y="770.2881493506493" as="targetPoint"/>
                        <mxPoint as="offset"/>
                    </mxGeometry>
                </mxCell>
                <mxCell id="Xsf8VFBO3j0tMAS3_5td-25" value="" style="endArrow=open;endSize=12;dashed=1;html=1;rounded=0;" parent="WIyWlLk6GJQsqaUBKTNV-1" source="262" target="270" edge="1">
                    <mxGeometry x="0.0045" y="105" width="160" relative="1" as="geometry">
                        <mxPoint x="633" y="769" as="sourcePoint"/>
                        <mxPoint x="384.9999999999991" y="769" as="targetPoint"/>
                        <mxPoint as="offset"/>
                    </mxGeometry>
                </mxCell>
                <mxCell id="Xsf8VFBO3j0tMAS3_5td-29" value="" style="endArrow=open;endSize=12;dashed=1;html=1;rounded=0;" parent="WIyWlLk6GJQsqaUBKTNV-1" source="33" target="SNIHwiunDkbFm7c5sR0U-5" edge="1">
                    <mxGeometry x="0.0045" y="105" width="160" relative="1" as="geometry">
                        <mxPoint x="8" y="423" as="sourcePoint"/>
                        <mxPoint x="218" y="697" as="targetPoint"/>
                        <mxPoint as="offset"/>
                    </mxGeometry>
                </mxCell>
                <mxCell id="Xsf8VFBO3j0tMAS3_5td-31" value="" style="endArrow=open;endSize=12;dashed=1;html=1;rounded=0;" parent="WIyWlLk6GJQsqaUBKTNV-1" source="35" target="SNIHwiunDkbFm7c5sR0U-5" edge="1">
                    <mxGeometry x="0.0045" y="105" width="160" relative="1" as="geometry">
                        <mxPoint x="128" y="559" as="sourcePoint"/>
                        <mxPoint x="158" y="577" as="targetPoint"/>
                        <mxPoint as="offset"/>
                    </mxGeometry>
                </mxCell>
                <mxCell id="4" value="UserId" style="swimlane;fontStyle=1;align=center;verticalAlign=top;childLayout=stackLayout;horizontal=1;startSize=26;horizontalStack=0;resizeParent=1;resizeParentMax=0;resizeLast=0;collapsible=1;marginBottom=0;fillColor=#FFFFFF;fontColor=#000000;" parent="WIyWlLk6GJQsqaUBKTNV-1" vertex="1">
                    <mxGeometry x="-249" y="883" width="174" height="60" as="geometry">
                        <mxRectangle x="33" y="155" width="60" height="26" as="alternateBounds"/>
                    </mxGeometry>
                </mxCell>
                <mxCell id="9" value="" style="line;strokeWidth=1;align=left;verticalAlign=middle;spacingTop=-1;spacingLeft=3;spacingRight=3;rotatable=0;labelPosition=right;points=[];portConstraint=eastwest;fillColor=none;" parent="4" vertex="1">
                    <mxGeometry y="26" width="174" height="8" as="geometry"/>
                </mxCell>
                <mxCell id="56" value="+ Equals(UserId): bool" style="text;strokeColor=none;align=left;verticalAlign=top;spacingLeft=4;spacingRight=4;overflow=hidden;rotatable=0;points=[[0,0.5],[1,0.5]];portConstraint=eastwest;fontStyle=0;fillColor=none;" parent="4" vertex="1">
                    <mxGeometry y="34" width="174" height="26" as="geometry"/>
                </mxCell>
                <mxCell id="13" value="" style="endArrow=open;endSize=12;dashed=1;html=1;rounded=0;" parent="WIyWlLk6GJQsqaUBKTNV-1" source="270" target="278" edge="1">
                    <mxGeometry x="0.0045" y="105" width="160" relative="1" as="geometry">
                        <mxPoint x="271" y="769" as="sourcePoint"/>
                        <mxPoint x="328" y="786" as="targetPoint"/>
                        <mxPoint as="offset"/>
                    </mxGeometry>
                </mxCell>
                <mxCell id="14" value="" style="endArrow=open;endSize=12;dashed=1;html=1;rounded=0;" parent="WIyWlLk6GJQsqaUBKTNV-1" source="262" target="SNIHwiunDkbFm7c5sR0U-15" edge="1">
                    <mxGeometry x="0.0045" y="105" width="160" relative="1" as="geometry">
                        <mxPoint x="736.5" y="736" as="sourcePoint"/>
                        <mxPoint x="612" y="668" as="targetPoint"/>
                        <mxPoint as="offset"/>
                    </mxGeometry>
                </mxCell>
                <mxCell id="30" value="" style="endArrow=block;dashed=1;endFill=0;endSize=12;html=1;" parent="WIyWlLk6GJQsqaUBKTNV-1" source="297" target="307" edge="1">
                    <mxGeometry width="160" relative="1" as="geometry">
                        <mxPoint x="2420" y="516" as="sourcePoint"/>
                        <mxPoint x="1653.5" y="729.5" as="targetPoint"/>
                    </mxGeometry>
                </mxCell>
                <mxCell id="31" value="" style="endArrow=block;dashed=1;endFill=0;endSize=12;html=1;" parent="WIyWlLk6GJQsqaUBKTNV-1" source="297" target="308" edge="1">
                    <mxGeometry width="160" relative="1" as="geometry">
                        <mxPoint x="1619.8244274809158" y="380.99999999999955" as="sourcePoint"/>
                        <mxPoint x="1461.3511450381684" y="301.00000000000045" as="targetPoint"/>
                    </mxGeometry>
                </mxCell>
                <mxCell id="33" value="&lt;p style=&quot;margin: 0px ; margin-top: 4px ; text-align: center&quot;&gt;&lt;i&gt;&amp;lt;&amp;lt;Interface&amp;gt;&amp;gt;&lt;/i&gt;&lt;br&gt;&lt;b&gt;INotification&lt;/b&gt;&lt;/p&gt;&lt;hr size=&quot;1&quot;&gt;&lt;p style=&quot;margin: 0px ; margin-left: 4px&quot;&gt;&lt;/p&gt;&lt;p style=&quot;margin: 0px ; margin-left: 4px&quot;&gt;+ Notify(User): void&lt;/p&gt;" style="verticalAlign=top;align=left;overflow=fill;fontSize=12;fontFamily=Helvetica;html=1;" parent="WIyWlLk6GJQsqaUBKTNV-1" vertex="1">
                    <mxGeometry x="-50" y="234.5" width="116" height="65" as="geometry"/>
                </mxCell>
                <mxCell id="35" value="&lt;p style=&quot;margin: 0px ; margin-top: 4px ; text-align: center&quot;&gt;&lt;i&gt;&amp;lt;&amp;lt;Interface&amp;gt;&amp;gt;&lt;/i&gt;&lt;br&gt;&lt;b&gt;IState&lt;/b&gt;&lt;/p&gt;&lt;hr size=&quot;1&quot;&gt;&lt;p style=&quot;margin: 0px ; margin-left: 4px&quot;&gt;&lt;/p&gt;&lt;p style=&quot;margin: 0px ; margin-left: 4px&quot;&gt;+ ReceiveMessage(User, string): (IState, string)&lt;/p&gt;&lt;br&gt;&lt;p style=&quot;margin: 0px 0px 0px 4px&quot;&gt;&lt;/p&gt;&lt;p style=&quot;margin: 0px 0px 0px 4px&quot;&gt;&lt;/p&gt;&lt;p style=&quot;margin: 0px 0px 0px 4px&quot;&gt;&lt;/p&gt;&lt;p style=&quot;margin: 0px 0px 0px 4px&quot;&gt;&lt;/p&gt;&lt;p style=&quot;margin: 0px 0px 0px 4px&quot;&gt;&lt;/p&gt;&lt;p style=&quot;margin: 0px 0px 0px 4px&quot;&gt;&lt;/p&gt;" style="verticalAlign=top;align=left;overflow=fill;fontSize=12;fontFamily=Helvetica;html=1;" parent="WIyWlLk6GJQsqaUBKTNV-1" vertex="1">
                    <mxGeometry x="193" y="303.5" width="270" height="71" as="geometry"/>
                </mxCell>
                <mxCell id="41" value="UserId" style="swimlane;fontStyle=1;align=center;verticalAlign=top;childLayout=stackLayout;horizontal=1;startSize=26;horizontalStack=0;resizeParent=1;resizeParentMax=0;resizeLast=0;collapsible=1;marginBottom=0;fillColor=#FFFFFF;fontColor=#000000;" parent="WIyWlLk6GJQsqaUBKTNV-1" vertex="1" collapsed="1">
                    <mxGeometry x="430" y="660" width="66" height="26" as="geometry">
                        <mxRectangle x="1511" y="-136" width="181" height="112" as="alternateBounds"/>
                    </mxGeometry>
                </mxCell>
                <mxCell id="59" value="Extends" style="endArrow=block;endSize=16;endFill=0;html=1;" parent="WIyWlLk6GJQsqaUBKTNV-1" source="60" target="4" edge="1">
                    <mxGeometry width="160" relative="1" as="geometry">
                        <mxPoint x="-424" y="984" as="sourcePoint"/>
                        <mxPoint x="-264" y="984" as="targetPoint"/>
                    </mxGeometry>
                </mxCell>
                <mxCell id="60" value="WhatsAppId" style="swimlane;fontStyle=1;align=center;verticalAlign=top;childLayout=stackLayout;horizontal=1;startSize=26;horizontalStack=0;resizeParent=1;resizeParentMax=0;resizeLast=0;collapsible=1;marginBottom=0;fillColor=#FFFFFF;fontColor=#000000;" parent="WIyWlLk6GJQsqaUBKTNV-1" vertex="1" collapsed="1">
                    <mxGeometry x="-490" y="913" width="110" height="26" as="geometry">
                        <mxRectangle x="-235" y="65" width="174" height="34" as="alternateBounds"/>
                    </mxGeometry>
                </mxCell>
                <mxCell id="62" value="" style="line;strokeWidth=1;align=left;verticalAlign=middle;spacingTop=-1;spacingLeft=3;spacingRight=3;rotatable=0;labelPosition=right;points=[];portConstraint=eastwest;fillColor=none;" parent="60" vertex="1">
                    <mxGeometry y="26" width="110" height="8" as="geometry"/>
                </mxCell>
                <mxCell id="65" value="TelegramId" style="swimlane;fontStyle=1;align=center;verticalAlign=top;childLayout=stackLayout;horizontal=1;startSize=26;horizontalStack=0;resizeParent=1;resizeParentMax=0;resizeLast=0;collapsible=1;marginBottom=0;fillColor=#FFFFFF;fontColor=#000000;" parent="WIyWlLk6GJQsqaUBKTNV-1" vertex="1" collapsed="1">
                    <mxGeometry x="-217" y="1073" width="110" height="26" as="geometry">
                        <mxRectangle x="-235" y="65" width="174" height="34" as="alternateBounds"/>
                    </mxGeometry>
                </mxCell>
                <mxCell id="66" value="" style="line;strokeWidth=1;align=left;verticalAlign=middle;spacingTop=-1;spacingLeft=3;spacingRight=3;rotatable=0;labelPosition=right;points=[];portConstraint=eastwest;fillColor=none;" parent="65" vertex="1">
                    <mxGeometry y="26" width="110" height="8" as="geometry"/>
                </mxCell>
                <mxCell id="67" value="Extends" style="endArrow=block;endSize=16;endFill=0;html=1;" parent="WIyWlLk6GJQsqaUBKTNV-1" source="65" target="4" edge="1">
                    <mxGeometry width="160" relative="1" as="geometry">
                        <mxPoint x="-359" y="937.4634146341463" as="sourcePoint"/>
                        <mxPoint x="-239" y="912.2926829268292" as="targetPoint"/>
                    </mxGeometry>
                </mxCell>
                <mxCell id="79" value="" style="endArrow=open;endSize=12;dashed=1;html=1;rounded=0;" parent="WIyWlLk6GJQsqaUBKTNV-1" source="33" edge="1">
                    <mxGeometry x="0.0045" y="105" width="160" relative="1" as="geometry">
                        <mxPoint x="18" y="309.5" as="sourcePoint"/>
                        <mxPoint x="946.5" y="267.00000000000045" as="targetPoint"/>
                        <mxPoint as="offset"/>
                    </mxGeometry>
                </mxCell>
                <mxCell id="87" value="UserId" style="swimlane;fontStyle=1;align=center;verticalAlign=top;childLayout=stackLayout;horizontal=1;startSize=26;horizontalStack=0;resizeParent=1;resizeParentMax=0;resizeLast=0;collapsible=1;marginBottom=0;fillColor=#FFFFFF;fontColor=#000000;" parent="WIyWlLk6GJQsqaUBKTNV-1" vertex="1" collapsed="1">
                    <mxGeometry x="-1720" y="205" width="60" height="26" as="geometry">
                        <mxRectangle x="2" y="-422" width="170" height="34" as="alternateBounds"/>
                    </mxGeometry>
                </mxCell>
                <mxCell id="94" value="Invitation" style="swimlane;fontStyle=1;align=center;verticalAlign=top;childLayout=stackLayout;horizontal=1;startSize=26;horizontalStack=0;resizeParent=1;resizeParentMax=0;resizeLast=0;collapsible=1;marginBottom=0;fillColor=#FFFFFF;fontColor=#000000;" parent="WIyWlLk6GJQsqaUBKTNV-1" vertex="1">
                    <mxGeometry x="-1467" y="-8" width="153" height="78" as="geometry">
                        <mxRectangle x="530" y="280" width="150" height="26" as="alternateBounds"/>
                    </mxGeometry>
                </mxCell>
                <mxCell id="95" value="+ Code: string" style="text;strokeColor=none;align=left;verticalAlign=top;spacingLeft=4;spacingRight=4;overflow=hidden;rotatable=0;points=[[0,0.5],[1,0.5]];portConstraint=eastwest;fillColor=none;fontStyle=0" parent="94" vertex="1">
                    <mxGeometry y="26" width="153" height="26" as="geometry"/>
                </mxCell>
                <mxCell id="98" value="+ Company: Company" style="text;strokeColor=none;align=left;verticalAlign=top;spacingLeft=4;spacingRight=4;overflow=hidden;rotatable=0;points=[[0,0.5],[1,0.5]];portConstraint=eastwest;fillColor=none;fontStyle=0" parent="94" vertex="1">
                    <mxGeometry y="52" width="153" height="26" as="geometry"/>
                </mxCell>
                <mxCell id="99" value="InvitationManager" style="swimlane;fontStyle=1;align=center;verticalAlign=top;childLayout=stackLayout;horizontal=1;startSize=26;horizontalStack=0;resizeParent=1;resizeParentMax=0;resizeLast=0;collapsible=1;marginBottom=0;fillColor=#FFFFFF;fontColor=#000000;" parent="WIyWlLk6GJQsqaUBKTNV-1" vertex="1">
                    <mxGeometry x="-1573" y="162" width="369" height="112" as="geometry">
                        <mxRectangle x="136" y="-452" width="150" height="26" as="alternateBounds"/>
                    </mxGeometry>
                </mxCell>
                <mxCell id="100" value="- invitations: List&lt;Invitation&gt;" style="text;strokeColor=none;align=left;verticalAlign=top;spacingLeft=4;spacingRight=4;overflow=hidden;rotatable=0;points=[[0,0.5],[1,0.5]];portConstraint=eastwest;fillColor=none;fontStyle=0" parent="99" vertex="1">
                    <mxGeometry y="26" width="369" height="26" as="geometry"/>
                </mxCell>
                <mxCell id="96" value="" style="line;strokeWidth=1;align=left;verticalAlign=middle;spacingTop=-1;spacingLeft=3;spacingRight=3;rotatable=0;labelPosition=right;points=[];portConstraint=eastwest;fillColor=none;" parent="99" vertex="1">
                    <mxGeometry y="52" width="369" height="8" as="geometry"/>
                </mxCell>
                <mxCell id="101" value="+ CreateInvitation(string invitationCode, Company company): void" style="text;strokeColor=none;align=left;verticalAlign=top;spacingLeft=4;spacingRight=4;overflow=hidden;rotatable=0;points=[[0,0.5],[1,0.5]];portConstraint=eastwest;fillColor=none;fontStyle=0" parent="99" vertex="1">
                    <mxGeometry y="60" width="369" height="26" as="geometry"/>
                </mxCell>
                <mxCell id="106" value="+ ValidateInvitation(string invitationCode, UserId id): bool" style="text;strokeColor=none;align=left;verticalAlign=top;spacingLeft=4;spacingRight=4;overflow=hidden;rotatable=0;points=[[0,0.5],[1,0.5]];portConstraint=eastwest;fillColor=none;fontStyle=0" parent="99" vertex="1">
                    <mxGeometry y="86" width="369" height="26" as="geometry"/>
                </mxCell>
                <mxCell id="102" value="" style="endArrow=open;endSize=12;dashed=1;html=1;rounded=0;" parent="WIyWlLk6GJQsqaUBKTNV-1" source="99" target="87" edge="1">
                    <mxGeometry x="0.0045" y="105" width="160" relative="1" as="geometry">
                        <mxPoint x="-1602" y="-9" as="sourcePoint"/>
                        <mxPoint x="-1672" y="32" as="targetPoint"/>
                        <mxPoint as="offset"/>
                    </mxGeometry>
                </mxCell>
                <mxCell id="103" value="" style="endArrow=open;endSize=12;dashed=1;html=1;rounded=0;" parent="WIyWlLk6GJQsqaUBKTNV-1" source="99" target="94" edge="1">
                    <mxGeometry x="0.0045" y="105" width="160" relative="1" as="geometry">
                        <mxPoint x="-1565" y="-10" as="sourcePoint"/>
                        <mxPoint x="-1411" y="-134" as="targetPoint"/>
                        <mxPoint as="offset"/>
                    </mxGeometry>
                </mxCell>
                <mxCell id="108" value="Company" style="swimlane;fontStyle=1;align=center;verticalAlign=top;childLayout=stackLayout;horizontal=1;startSize=26;horizontalStack=0;resizeParent=1;resizeParentMax=0;resizeLast=0;collapsible=1;marginBottom=0;fillColor=#FFFFFF;fontColor=#000000;" parent="WIyWlLk6GJQsqaUBKTNV-1" vertex="1">
                    <mxGeometry x="-1203" y="-1096" width="317" height="156" as="geometry">
                        <mxRectangle x="530" y="280" width="150" height="26" as="alternateBounds"/>
                    </mxGeometry>
                </mxCell>
                <mxCell id="109" value="+ Name: string" style="text;strokeColor=none;align=left;verticalAlign=top;spacingLeft=4;spacingRight=4;overflow=hidden;rotatable=0;points=[[0,0.5],[1,0.5]];portConstraint=eastwest;fillColor=none;fontStyle=0" parent="108" vertex="1">
                    <mxGeometry y="26" width="317" height="26" as="geometry"/>
                </mxCell>
                <mxCell id="110" value="+ Representants: List&lt;CompanyRepresentative&gt;" style="text;strokeColor=none;align=left;verticalAlign=top;spacingLeft=4;spacingRight=4;overflow=hidden;rotatable=0;points=[[0,0.5],[1,0.5]];portConstraint=eastwest;fillColor=none;fontStyle=0" parent="108" vertex="1">
                    <mxGeometry y="52" width="317" height="26" as="geometry"/>
                </mxCell>
                <mxCell id="134" value="+ Publications: List&lt;MaterialPublication&gt;" style="text;strokeColor=none;align=left;verticalAlign=top;spacingLeft=4;spacingRight=4;overflow=hidden;rotatable=0;points=[[0,0.5],[1,0.5]];portConstraint=eastwest;fillColor=none;fontStyle=0" parent="108" vertex="1">
                    <mxGeometry y="78" width="317" height="26" as="geometry"/>
                </mxCell>
                <mxCell id="186" value="+ ContactInfo: ContactInfo" style="text;strokeColor=none;align=left;verticalAlign=top;spacingLeft=4;spacingRight=4;overflow=hidden;rotatable=0;points=[[0,0.5],[1,0.5]];portConstraint=eastwest;fillColor=none;fontStyle=0" parent="108" vertex="1">
                    <mxGeometry y="104" width="317" height="26" as="geometry"/>
                </mxCell>
                <mxCell id="242" value="+ Heading: string" style="text;strokeColor=none;align=left;verticalAlign=top;spacingLeft=4;spacingRight=4;overflow=hidden;rotatable=0;points=[[0,0.5],[1,0.5]];portConstraint=eastwest;fillColor=none;fontStyle=0" parent="108" vertex="1">
                    <mxGeometry y="130" width="317" height="26" as="geometry"/>
                </mxCell>
                <mxCell id="112" value="" style="endArrow=open;endSize=12;dashed=1;html=1;rounded=0;" parent="WIyWlLk6GJQsqaUBKTNV-1" source="94" target="234" edge="1">
                    <mxGeometry x="0.0045" y="105" width="160" relative="1" as="geometry">
                        <mxPoint x="-1232" y="2" as="sourcePoint"/>
                        <mxPoint x="-1204" y="31.000000000000455" as="targetPoint"/>
                        <mxPoint as="offset"/>
                    </mxGeometry>
                </mxCell>
                <mxCell id="115" value="ContactInfo" style="swimlane;fontStyle=1;align=center;verticalAlign=top;childLayout=stackLayout;horizontal=1;startSize=26;horizontalStack=0;resizeParent=1;resizeParentMax=0;resizeLast=0;collapsible=1;marginBottom=0;fillColor=#FFFFFF;fontColor=#000000;" parent="WIyWlLk6GJQsqaUBKTNV-1" vertex="1" collapsed="1">
                    <mxGeometry x="-792" y="-1031" width="88" height="26" as="geometry">
                        <mxRectangle x="675" y="-873" width="148" height="78" as="alternateBounds"/>
                    </mxGeometry>
                </mxCell>
                <mxCell id="120" value="" style="endArrow=open;endSize=12;dashed=1;html=1;rounded=0;" parent="WIyWlLk6GJQsqaUBKTNV-1" source="108" target="115" edge="1">
                    <mxGeometry x="0.0045" y="105" width="160" relative="1" as="geometry">
                        <mxPoint x="-1303" y="-1004" as="sourcePoint"/>
                        <mxPoint x="-894" y="-1127" as="targetPoint"/>
                        <mxPoint as="offset"/>
                    </mxGeometry>
                </mxCell>
                <mxCell id="121" value="CompanyRepresentative" style="swimlane;fontStyle=1;align=center;verticalAlign=top;childLayout=stackLayout;horizontal=1;startSize=26;horizontalStack=0;resizeParent=1;resizeParentMax=0;resizeLast=0;collapsible=1;marginBottom=0;fillColor=#FFFFFF;fontColor=#000000;" parent="WIyWlLk6GJQsqaUBKTNV-1" vertex="1">
                    <mxGeometry x="-1180" y="-780" width="271" height="52" as="geometry">
                        <mxRectangle x="530" y="280" width="150" height="26" as="alternateBounds"/>
                    </mxGeometry>
                </mxCell>
                <mxCell id="122" value="+ Company: Company" style="text;strokeColor=none;align=left;verticalAlign=top;spacingLeft=4;spacingRight=4;overflow=hidden;rotatable=0;points=[[0,0.5],[1,0.5]];portConstraint=eastwest;fillColor=none;fontStyle=0" parent="121" vertex="1">
                    <mxGeometry y="26" width="271" height="26" as="geometry"/>
                </mxCell>
                <mxCell id="125" value="User" style="swimlane;fontStyle=1;align=center;verticalAlign=top;childLayout=stackLayout;horizontal=1;startSize=26;horizontalStack=0;resizeParent=1;resizeParentMax=0;resizeLast=0;collapsible=1;marginBottom=0;fillColor=#FFFFFF;fontColor=#000000;" parent="WIyWlLk6GJQsqaUBKTNV-1" vertex="1" collapsed="1">
                    <mxGeometry x="-1074.5" y="-645" width="60" height="26" as="geometry">
                        <mxRectangle x="2" y="-422" width="170" height="34" as="alternateBounds"/>
                    </mxGeometry>
                </mxCell>
                <mxCell id="126" value="Extends" style="endArrow=block;endSize=16;endFill=0;html=1;" parent="WIyWlLk6GJQsqaUBKTNV-1" source="121" target="125" edge="1">
                    <mxGeometry width="160" relative="1" as="geometry">
                        <mxPoint x="-1138" y="-934" as="sourcePoint"/>
                        <mxPoint x="-978" y="-934" as="targetPoint"/>
                    </mxGeometry>
                </mxCell>
                <mxCell id="127" value="" style="endArrow=open;endSize=12;dashed=1;html=1;rounded=0;" parent="WIyWlLk6GJQsqaUBKTNV-1" source="108" target="121" edge="1">
                    <mxGeometry x="0.0045" y="105" width="160" relative="1" as="geometry">
                        <mxPoint x="-899.0000000000002" y="-1104" as="sourcePoint"/>
                        <mxPoint x="-805" y="-1104" as="targetPoint"/>
                        <mxPoint as="offset"/>
                    </mxGeometry>
                </mxCell>
                <mxCell id="129" value="" style="endArrow=open;endSize=12;dashed=1;html=1;rounded=0;" parent="WIyWlLk6GJQsqaUBKTNV-1" source="121" target="108" edge="1">
                    <mxGeometry x="0.0045" y="105" width="160" relative="1" as="geometry">
                        <mxPoint x="-1034.5" y="-1052" as="sourcePoint"/>
                        <mxPoint x="-1034.5" y="-1027" as="targetPoint"/>
                        <mxPoint as="offset"/>
                    </mxGeometry>
                </mxCell>
                <mxCell id="130" value="ContactInfo" style="swimlane;fontStyle=1;align=center;verticalAlign=top;childLayout=stackLayout;horizontal=1;startSize=26;horizontalStack=0;resizeParent=1;resizeParentMax=0;resizeLast=0;collapsible=1;marginBottom=0;fillColor=#FFFFFF;fontColor=#000000;" parent="WIyWlLk6GJQsqaUBKTNV-1" vertex="1">
                    <mxGeometry x="-340" y="520" width="148" height="78" as="geometry">
                        <mxRectangle x="-217" y="19" width="150" height="26" as="alternateBounds"/>
                    </mxGeometry>
                </mxCell>
                <mxCell id="117" value="+ Email: string" style="text;strokeColor=none;align=left;verticalAlign=top;spacingLeft=4;spacingRight=4;overflow=hidden;rotatable=0;points=[[0,0.5],[1,0.5]];portConstraint=eastwest;fillColor=none;fontStyle=0" parent="130" vertex="1">
                    <mxGeometry y="26" width="148" height="26" as="geometry"/>
                </mxCell>
                <mxCell id="116" value="+ PhoneNumber: int" style="text;strokeColor=none;align=left;verticalAlign=top;spacingLeft=4;spacingRight=4;overflow=hidden;rotatable=0;points=[[0,0.5],[1,0.5]];portConstraint=eastwest;fillColor=none;fontStyle=0" parent="130" vertex="1">
                    <mxGeometry y="52" width="148" height="26" as="geometry"/>
                </mxCell>
                <mxCell id="133" value="" style="endArrow=open;endSize=12;dashed=1;html=1;rounded=0;" parent="WIyWlLk6GJQsqaUBKTNV-1" source="SNIHwiunDkbFm7c5sR0U-5" target="130" edge="1">
                    <mxGeometry x="0.0045" y="105" width="160" relative="1" as="geometry">
                        <mxPoint x="203" y="569" as="sourcePoint"/>
                        <mxPoint x="103" y="569" as="targetPoint"/>
                        <mxPoint as="offset"/>
                    </mxGeometry>
                </mxCell>
                <mxCell id="135" value="MaterialPublication" style="swimlane;fontStyle=1;align=center;verticalAlign=top;childLayout=stackLayout;horizontal=1;startSize=26;horizontalStack=0;resizeParent=1;resizeParentMax=0;resizeLast=0;collapsible=1;marginBottom=0;fillColor=#FFFFFF;fontColor=#000000;" parent="WIyWlLk6GJQsqaUBKTNV-1" vertex="1">
                    <mxGeometry x="-2375" y="-1883" width="171" height="130" as="geometry">
                        <mxRectangle x="530" y="280" width="150" height="26" as="alternateBounds"/>
                    </mxGeometry>
                </mxCell>
                <mxCell id="136" value="+ Material: Material" style="text;strokeColor=none;align=left;verticalAlign=top;spacingLeft=4;spacingRight=4;overflow=hidden;rotatable=0;points=[[0,0.5],[1,0.5]];portConstraint=eastwest;fillColor=none;fontStyle=0" parent="135" vertex="1">
                    <mxGeometry y="26" width="171" height="26" as="geometry"/>
                </mxCell>
                <mxCell id="139" value="+ Stock: Amount" style="text;strokeColor=none;align=left;verticalAlign=top;spacingLeft=4;spacingRight=4;overflow=hidden;rotatable=0;points=[[0,0.5],[1,0.5]];portConstraint=eastwest;fillColor=none;fontStyle=0" parent="135" vertex="1">
                    <mxGeometry y="52" width="171" height="26" as="geometry"/>
                </mxCell>
                <mxCell id="141" value="+ Price: Price" style="text;strokeColor=none;align=left;verticalAlign=top;spacingLeft=4;spacingRight=4;overflow=hidden;rotatable=0;points=[[0,0.5],[1,0.5]];portConstraint=eastwest;fillColor=none;fontStyle=0" parent="135" vertex="1">
                    <mxGeometry y="78" width="171" height="26" as="geometry"/>
                </mxCell>
                <mxCell id="138" value="+ PickupLocation: Location" style="text;strokeColor=none;align=left;verticalAlign=top;spacingLeft=4;spacingRight=4;overflow=hidden;rotatable=0;points=[[0,0.5],[1,0.5]];portConstraint=eastwest;fillColor=none;fontStyle=0" parent="135" vertex="1">
                    <mxGeometry y="104" width="171" height="26" as="geometry"/>
                </mxCell>
                <mxCell id="142" value="Material" style="swimlane;fontStyle=1;align=center;verticalAlign=top;childLayout=stackLayout;horizontal=1;startSize=26;horizontalStack=0;resizeParent=1;resizeParentMax=0;resizeLast=0;collapsible=1;marginBottom=0;fillColor=#FFFFFF;fontColor=#000000;" parent="WIyWlLk6GJQsqaUBKTNV-1" vertex="1">
                    <mxGeometry x="-2727" y="-1881" width="208" height="130" as="geometry">
                        <mxRectangle x="530" y="280" width="150" height="26" as="alternateBounds"/>
                    </mxGeometry>
                </mxCell>
                <mxCell id="143" value="+ Name: string" style="text;strokeColor=none;align=left;verticalAlign=top;spacingLeft=4;spacingRight=4;overflow=hidden;rotatable=0;points=[[0,0.5],[1,0.5]];portConstraint=eastwest;fillColor=none;fontStyle=0" parent="142" vertex="1">
                    <mxGeometry y="26" width="208" height="26" as="geometry"/>
                </mxCell>
                <mxCell id="147" value="+ Measure: Measure" style="text;strokeColor=none;align=left;verticalAlign=top;spacingLeft=4;spacingRight=4;overflow=hidden;rotatable=0;points=[[0,0.5],[1,0.5]];portConstraint=eastwest;fillColor=none;fontStyle=0" parent="142" vertex="1">
                    <mxGeometry y="52" width="208" height="26" as="geometry"/>
                </mxCell>
                <mxCell id="144" value="+ Requirements: List&lt;Requirement&gt;" style="text;strokeColor=none;align=left;verticalAlign=top;spacingLeft=4;spacingRight=4;overflow=hidden;rotatable=0;points=[[0,0.5],[1,0.5]];portConstraint=eastwest;fillColor=none;fontStyle=0" parent="142" vertex="1">
                    <mxGeometry y="78" width="208" height="26" as="geometry"/>
                </mxCell>
                <mxCell id="249" value="+ Category: MaterialCategory" style="text;strokeColor=none;align=left;verticalAlign=top;spacingLeft=4;spacingRight=4;overflow=hidden;rotatable=0;points=[[0,0.5],[1,0.5]];portConstraint=eastwest;fillColor=none;fontStyle=0" parent="142" vertex="1">
                    <mxGeometry y="104" width="208" height="26" as="geometry"/>
                </mxCell>
                <mxCell id="148" value="" style="endArrow=open;endSize=12;dashed=1;html=1;rounded=0;" parent="WIyWlLk6GJQsqaUBKTNV-1" source="135" target="142" edge="1">
                    <mxGeometry x="0.0045" y="105" width="160" relative="1" as="geometry">
                        <mxPoint x="-2279.5" y="-1741" as="sourcePoint"/>
                        <mxPoint x="-2279.5" y="-1664" as="targetPoint"/>
                        <mxPoint as="offset"/>
                    </mxGeometry>
                </mxCell>
                <mxCell id="149" value="Amount" style="swimlane;fontStyle=1;align=center;verticalAlign=top;childLayout=stackLayout;horizontal=1;startSize=26;horizontalStack=0;resizeParent=1;resizeParentMax=0;resizeLast=0;collapsible=1;marginBottom=0;fillColor=#FFFFFF;fontColor=#000000;" parent="WIyWlLk6GJQsqaUBKTNV-1" vertex="1">
                    <mxGeometry x="-2067.5" y="-1855" width="171" height="78" as="geometry">
                        <mxRectangle x="530" y="280" width="150" height="26" as="alternateBounds"/>
                    </mxGeometry>
                </mxCell>
                <mxCell id="150" value="+ Quantity: float" style="text;strokeColor=none;align=left;verticalAlign=top;spacingLeft=4;spacingRight=4;overflow=hidden;rotatable=0;points=[[0,0.5],[1,0.5]];portConstraint=eastwest;fillColor=none;fontStyle=0" parent="149" vertex="1">
                    <mxGeometry y="26" width="171" height="26" as="geometry"/>
                </mxCell>
                <mxCell id="151" value="+ Unit: Unit" style="text;strokeColor=none;align=left;verticalAlign=top;spacingLeft=4;spacingRight=4;overflow=hidden;rotatable=0;points=[[0,0.5],[1,0.5]];portConstraint=eastwest;fillColor=none;fontStyle=0" parent="149" vertex="1">
                    <mxGeometry y="52" width="171" height="26" as="geometry"/>
                </mxCell>
                <mxCell id="154" value="" style="endArrow=open;endSize=12;dashed=1;html=1;rounded=0;" parent="WIyWlLk6GJQsqaUBKTNV-1" source="135" target="149" edge="1">
                    <mxGeometry x="0.0045" y="105" width="160" relative="1" as="geometry">
                        <mxPoint x="-2279.5" y="-1741" as="sourcePoint"/>
                        <mxPoint x="-2279.5" y="-1664" as="targetPoint"/>
                        <mxPoint as="offset"/>
                    </mxGeometry>
                </mxCell>
                <mxCell id="155" value="Price" style="swimlane;fontStyle=1;align=center;verticalAlign=top;childLayout=stackLayout;horizontal=1;startSize=26;horizontalStack=0;resizeParent=1;resizeParentMax=0;resizeLast=0;collapsible=1;marginBottom=0;fillColor=#FFFFFF;fontColor=#000000;" parent="WIyWlLk6GJQsqaUBKTNV-1" vertex="1">
                    <mxGeometry x="-2375" y="-2049" width="171" height="104" as="geometry">
                        <mxRectangle x="530" y="280" width="150" height="26" as="alternateBounds"/>
                    </mxGeometry>
                </mxCell>
                <mxCell id="156" value="+ Quantity: float" style="text;strokeColor=none;align=left;verticalAlign=top;spacingLeft=4;spacingRight=4;overflow=hidden;rotatable=0;points=[[0,0.5],[1,0.5]];portConstraint=eastwest;fillColor=none;fontStyle=0" parent="155" vertex="1">
                    <mxGeometry y="26" width="171" height="26" as="geometry"/>
                </mxCell>
                <mxCell id="157" value="+ Currency: Currency" style="text;strokeColor=none;align=left;verticalAlign=top;spacingLeft=4;spacingRight=4;overflow=hidden;rotatable=0;points=[[0,0.5],[1,0.5]];portConstraint=eastwest;fillColor=none;fontStyle=0" parent="155" vertex="1">
                    <mxGeometry y="52" width="171" height="26" as="geometry"/>
                </mxCell>
                <mxCell id="158" value="+ Unit: Unit" style="text;strokeColor=none;align=left;verticalAlign=top;spacingLeft=4;spacingRight=4;overflow=hidden;rotatable=0;points=[[0,0.5],[1,0.5]];portConstraint=eastwest;fillColor=none;fontStyle=0" parent="155" vertex="1">
                    <mxGeometry y="78" width="171" height="26" as="geometry"/>
                </mxCell>
                <mxCell id="159" value="" style="endArrow=open;endSize=12;dashed=1;html=1;rounded=0;" parent="WIyWlLk6GJQsqaUBKTNV-1" source="135" target="155" edge="1">
                    <mxGeometry x="0.0045" y="105" width="160" relative="1" as="geometry">
                        <mxPoint x="-2194" y="-1807.4439024390244" as="sourcePoint"/>
                        <mxPoint x="-2057.5" y="-1806.5560975609758" as="targetPoint"/>
                        <mxPoint as="offset"/>
                    </mxGeometry>
                </mxCell>
                <mxCell id="160" value="Location..." style="swimlane;fontStyle=1;align=center;verticalAlign=top;childLayout=stackLayout;horizontal=1;startSize=26;horizontalStack=0;resizeParent=1;resizeParentMax=0;resizeLast=0;collapsible=1;marginBottom=0;fillColor=#FFFFFF;fontColor=#000000;" parent="WIyWlLk6GJQsqaUBKTNV-1" vertex="1" collapsed="1">
                    <mxGeometry x="-2057" y="-2010" width="150" height="26" as="geometry">
                        <mxRectangle x="667.5" y="-1274" width="171" height="104" as="alternateBounds"/>
                    </mxGeometry>
                </mxCell>
                <mxCell id="164" value="" style="endArrow=open;endSize=12;dashed=1;html=1;rounded=0;startArrow=none;" parent="WIyWlLk6GJQsqaUBKTNV-1" source="135" target="160" edge="1">
                    <mxGeometry x="0.0045" y="105" width="160" relative="1" as="geometry">
                        <mxPoint x="-1601" y="-1941" as="sourcePoint"/>
                        <mxPoint x="-2279.5" y="-1935" as="targetPoint"/>
                        <mxPoint as="offset"/>
                    </mxGeometry>
                </mxCell>
                <mxCell id="166" value="Measure" style="swimlane;fontStyle=1;align=center;verticalAlign=top;childLayout=stackLayout;horizontal=1;startSize=26;horizontalStack=0;resizeParent=1;resizeParentMax=0;resizeLast=0;collapsible=1;marginBottom=0;fillColor=#FFFFFF;fontColor=#000000;" parent="WIyWlLk6GJQsqaUBKTNV-1" vertex="1">
                    <mxGeometry x="-2715.5" y="-2049" width="185" height="104" as="geometry">
                        <mxRectangle x="530" y="280" width="150" height="26" as="alternateBounds"/>
                    </mxGeometry>
                </mxCell>
                <mxCell id="167" value="+ Name: string" style="text;strokeColor=none;align=left;verticalAlign=top;spacingLeft=4;spacingRight=4;overflow=hidden;rotatable=0;points=[[0,0.5],[1,0.5]];portConstraint=eastwest;fillColor=none;fontStyle=0" parent="166" vertex="1">
                    <mxGeometry y="26" width="185" height="26" as="geometry"/>
                </mxCell>
                <mxCell id="169" value="+ Unit: Unit[ ]" style="text;strokeColor=none;align=left;verticalAlign=top;spacingLeft=4;spacingRight=4;overflow=hidden;rotatable=0;points=[[0,0.5],[1,0.5]];portConstraint=eastwest;fillColor=none;fontStyle=0" parent="166" vertex="1">
                    <mxGeometry y="52" width="185" height="26" as="geometry"/>
                </mxCell>
                <mxCell id="171" value="+ Values: Measure[ ]" style="text;strokeColor=none;align=left;verticalAlign=top;spacingLeft=4;spacingRight=4;overflow=hidden;rotatable=0;points=[[0,0.5],[1,0.5]];portConstraint=eastwest;fillColor=none;fontStyle=4" parent="166" vertex="1">
                    <mxGeometry y="78" width="185" height="26" as="geometry"/>
                </mxCell>
                <mxCell id="170" value="" style="endArrow=open;endSize=12;dashed=1;html=1;rounded=0;" parent="WIyWlLk6GJQsqaUBKTNV-1" source="142" target="166" edge="1">
                    <mxGeometry x="0.0045" y="105" width="160" relative="1" as="geometry">
                        <mxPoint x="-2365" y="-1807.487256371814" as="sourcePoint"/>
                        <mxPoint x="-2509" y="-1806.623688155922" as="targetPoint"/>
                        <mxPoint as="offset"/>
                    </mxGeometry>
                </mxCell>
                <mxCell id="172" value="Unit" style="swimlane;fontStyle=1;align=center;verticalAlign=top;childLayout=stackLayout;horizontal=1;startSize=26;horizontalStack=0;resizeParent=1;resizeParentMax=0;resizeLast=0;collapsible=1;marginBottom=0;fillColor=#FFFFFF;fontColor=#000000;" parent="WIyWlLk6GJQsqaUBKTNV-1" vertex="1">
                    <mxGeometry x="-2715.5" y="-2235" width="185" height="130" as="geometry">
                        <mxRectangle x="530" y="280" width="150" height="26" as="alternateBounds"/>
                    </mxGeometry>
                </mxCell>
                <mxCell id="173" value="+ Name: string" style="text;strokeColor=none;align=left;verticalAlign=top;spacingLeft=4;spacingRight=4;overflow=hidden;rotatable=0;points=[[0,0.5],[1,0.5]];portConstraint=eastwest;fillColor=none;fontStyle=0" parent="172" vertex="1">
                    <mxGeometry y="26" width="185" height="26" as="geometry"/>
                </mxCell>
                <mxCell id="174" value="+ Abbreviation: string" style="text;strokeColor=none;align=left;verticalAlign=top;spacingLeft=4;spacingRight=4;overflow=hidden;rotatable=0;points=[[0,0.5],[1,0.5]];portConstraint=eastwest;fillColor=none;fontStyle=0" parent="172" vertex="1">
                    <mxGeometry y="52" width="185" height="26" as="geometry"/>
                </mxCell>
                <mxCell id="175" value="+ Measure: Measure" style="text;strokeColor=none;align=left;verticalAlign=top;spacingLeft=4;spacingRight=4;overflow=hidden;rotatable=0;points=[[0,0.5],[1,0.5]];portConstraint=eastwest;fillColor=none;fontStyle=0" parent="172" vertex="1">
                    <mxGeometry y="78" width="185" height="26" as="geometry"/>
                </mxCell>
                <mxCell id="176" value="+ Values: Unit[ ]" style="text;strokeColor=none;align=left;verticalAlign=top;spacingLeft=4;spacingRight=4;overflow=hidden;rotatable=0;points=[[0,0.5],[1,0.5]];portConstraint=eastwest;fillColor=none;fontStyle=4" parent="172" vertex="1">
                    <mxGeometry y="104" width="185" height="26" as="geometry"/>
                </mxCell>
                <mxCell id="177" value="" style="endArrow=open;endSize=12;dashed=1;html=1;rounded=0;" parent="WIyWlLk6GJQsqaUBKTNV-1" source="166" target="172" edge="1">
                    <mxGeometry x="0.0045" y="105" width="160" relative="1" as="geometry">
                        <mxPoint x="-2613" y="-1858" as="sourcePoint"/>
                        <mxPoint x="-2613" y="-1935" as="targetPoint"/>
                        <mxPoint as="offset"/>
                    </mxGeometry>
                </mxCell>
                <mxCell id="178" value="" style="endArrow=open;endSize=12;dashed=1;html=1;rounded=0;" parent="WIyWlLk6GJQsqaUBKTNV-1" source="172" target="166" edge="1">
                    <mxGeometry x="0.0045" y="105" width="160" relative="1" as="geometry">
                        <mxPoint x="-2613" y="-2039" as="sourcePoint"/>
                        <mxPoint x="-2645" y="-2034" as="targetPoint"/>
                        <mxPoint as="offset"/>
                    </mxGeometry>
                </mxCell>
                <mxCell id="180" value="Requirement..." style="swimlane;fontStyle=1;align=center;verticalAlign=top;childLayout=stackLayout;horizontal=1;startSize=26;horizontalStack=0;resizeParent=1;resizeParentMax=0;resizeLast=0;collapsible=1;marginBottom=0;fillColor=#FFFFFF;fontColor=#000000;" parent="WIyWlLk6GJQsqaUBKTNV-1" vertex="1" collapsed="1">
                    <mxGeometry x="-3043" y="-1829" width="150" height="26" as="geometry">
                        <mxRectangle x="-1801" y="-1375" width="208" height="104" as="alternateBounds"/>
                    </mxGeometry>
                </mxCell>
                <mxCell id="184" value="" style="endArrow=open;endSize=12;dashed=1;html=1;rounded=0;" parent="WIyWlLk6GJQsqaUBKTNV-1" source="142" target="180" edge="1">
                    <mxGeometry x="0.0045" y="105" width="160" relative="1" as="geometry">
                        <mxPoint x="-2613" y="-1858" as="sourcePoint"/>
                        <mxPoint x="-2613" y="-1935" as="targetPoint"/>
                        <mxPoint as="offset"/>
                    </mxGeometry>
                </mxCell>
                <mxCell id="188" value="Currency" style="swimlane;fontStyle=1;align=center;verticalAlign=top;childLayout=stackLayout;horizontal=1;startSize=26;horizontalStack=0;resizeParent=1;resizeParentMax=0;resizeLast=0;collapsible=1;marginBottom=0;fillColor=#FFFFFF;fontColor=#000000;" parent="WIyWlLk6GJQsqaUBKTNV-1" vertex="1">
                    <mxGeometry x="-2375" y="-2235" width="171" height="130" as="geometry">
                        <mxRectangle x="530" y="280" width="150" height="26" as="alternateBounds"/>
                    </mxGeometry>
                </mxCell>
                <mxCell id="189" value="+ Name: string" style="text;strokeColor=none;align=left;verticalAlign=top;spacingLeft=4;spacingRight=4;overflow=hidden;rotatable=0;points=[[0,0.5],[1,0.5]];portConstraint=eastwest;fillColor=none;fontStyle=0" parent="188" vertex="1">
                    <mxGeometry y="26" width="171" height="26" as="geometry"/>
                </mxCell>
                <mxCell id="190" value="+ Symbol: string" style="text;strokeColor=none;align=left;verticalAlign=top;spacingLeft=4;spacingRight=4;overflow=hidden;rotatable=0;points=[[0,0.5],[1,0.5]];portConstraint=eastwest;fillColor=none;fontStyle=0" parent="188" vertex="1">
                    <mxGeometry y="52" width="171" height="26" as="geometry"/>
                </mxCell>
                <mxCell id="243" value="+ Peso: Currency" style="text;strokeColor=none;align=left;verticalAlign=top;spacingLeft=4;spacingRight=4;overflow=hidden;rotatable=0;points=[[0,0.5],[1,0.5]];portConstraint=eastwest;fillColor=none;fontStyle=4" parent="188" vertex="1">
                    <mxGeometry y="78" width="171" height="26" as="geometry"/>
                </mxCell>
                <mxCell id="244" value="+ Dollar: Currency" style="text;strokeColor=none;align=left;verticalAlign=top;spacingLeft=4;spacingRight=4;overflow=hidden;rotatable=0;points=[[0,0.5],[1,0.5]];portConstraint=eastwest;fillColor=none;fontStyle=4" parent="188" vertex="1">
                    <mxGeometry y="104" width="171" height="26" as="geometry"/>
                </mxCell>
                <mxCell id="192" value="" style="endArrow=open;endSize=12;dashed=1;html=1;rounded=0;" parent="WIyWlLk6GJQsqaUBKTNV-1" source="155" target="188" edge="1">
                    <mxGeometry x="0.0045" y="105" width="160" relative="1" as="geometry">
                        <mxPoint x="-2288" y="-2036" as="sourcePoint"/>
                        <mxPoint x="-2279.5" y="-1935" as="targetPoint"/>
                        <mxPoint as="offset"/>
                    </mxGeometry>
                </mxCell>
                <mxCell id="193" value="" style="endArrow=open;endSize=12;dashed=1;html=1;rounded=0;" parent="WIyWlLk6GJQsqaUBKTNV-1" source="155" target="172" edge="1">
                    <mxGeometry x="0.0045" y="105" width="160" relative="1" as="geometry">
                        <mxPoint x="-2613" y="-1858" as="sourcePoint"/>
                        <mxPoint x="-2489" y="-2071" as="targetPoint"/>
                        <mxPoint as="offset"/>
                    </mxGeometry>
                </mxCell>
                <mxCell id="202" value="" style="endArrow=open;endSize=12;dashed=1;html=1;rounded=0;" parent="WIyWlLk6GJQsqaUBKTNV-1" source="258" target="135" edge="1">
                    <mxGeometry x="0.0045" y="105" width="160" relative="1" as="geometry">
                        <mxPoint x="-2289.5" y="-1681" as="sourcePoint"/>
                        <mxPoint x="-2453" y="-1645" as="targetPoint"/>
                        <mxPoint as="offset"/>
                    </mxGeometry>
                </mxCell>
                <mxCell id="213" value="" style="endArrow=classic;html=1;jumpSize=6;strokeWidth=20;startArrow=none;startFill=0;" parent="WIyWlLk6GJQsqaUBKTNV-1" edge="1">
                    <mxGeometry width="50" height="50" relative="1" as="geometry">
                        <mxPoint x="-154" y="115" as="sourcePoint"/>
                        <mxPoint x="-737" y="-619" as="targetPoint"/>
                    </mxGeometry>
                </mxCell>
                <mxCell id="217" value="" style="endArrow=classic;html=1;endSize=6;jumpSize=6;strokeWidth=20;" parent="WIyWlLk6GJQsqaUBKTNV-1" edge="1">
                    <mxGeometry width="50" height="50" relative="1" as="geometry">
                        <mxPoint x="-2043.053812497652" y="-1614.6125721963735" as="sourcePoint"/>
                        <mxPoint x="-1366" y="-1141" as="targetPoint"/>
                    </mxGeometry>
                </mxCell>
                <mxCell id="218" value="Low-level interaction with the users" style="text;html=1;strokeColor=none;fillColor=none;align=center;verticalAlign=middle;whiteSpace=wrap;rounded=0;shadow=0;sketch=0;strokeWidth=1;fontSize=120;" parent="WIyWlLk6GJQsqaUBKTNV-1" vertex="1">
                    <mxGeometry x="75" y="-200" width="1211" height="317" as="geometry"/>
                </mxCell>
                <mxCell id="219" value="Company" style="text;html=1;strokeColor=none;fillColor=none;align=center;verticalAlign=middle;whiteSpace=wrap;rounded=0;shadow=0;sketch=0;strokeWidth=1;fontSize=120;" parent="WIyWlLk6GJQsqaUBKTNV-1" vertex="1">
                    <mxGeometry x="-1353" y="-1383" width="597" height="195" as="geometry"/>
                </mxCell>
                <mxCell id="220" value="Material publication" style="text;html=1;strokeColor=none;fillColor=none;align=center;verticalAlign=middle;whiteSpace=wrap;rounded=0;shadow=0;sketch=0;strokeWidth=1;fontSize=120;" parent="WIyWlLk6GJQsqaUBKTNV-1" vertex="1">
                    <mxGeometry x="-3007" y="-2628" width="1171" height="317" as="geometry"/>
                </mxCell>
                <mxCell id="224" value="" style="endArrow=open;endSize=12;dashed=1;html=1;rounded=0;" parent="WIyWlLk6GJQsqaUBKTNV-1" source="327" target="99" edge="1">
                    <mxGeometry x="0.0045" y="105" width="160" relative="1" as="geometry">
                        <mxPoint x="-1143" y="218.00000000000045" as="sourcePoint"/>
                        <mxPoint x="-1135" y="-178" as="targetPoint"/>
                        <mxPoint as="offset"/>
                    </mxGeometry>
                </mxCell>
                <mxCell id="234" value="Company" style="swimlane;fontStyle=1;align=center;verticalAlign=top;childLayout=stackLayout;horizontal=1;startSize=26;horizontalStack=0;resizeParent=1;resizeParentMax=0;resizeLast=0;collapsible=1;marginBottom=0;fillColor=#FFFFFF;fontColor=#000000;" parent="WIyWlLk6GJQsqaUBKTNV-1" vertex="1" collapsed="1">
                    <mxGeometry x="-1219" y="18" width="95.5" height="26" as="geometry">
                        <mxRectangle x="2" y="-422" width="170" height="34" as="alternateBounds"/>
                    </mxGeometry>
                </mxCell>
                <mxCell id="236" value="" style="endArrow=classic;html=1;jumpSize=6;strokeWidth=20;startArrow=none;startFill=0;" parent="WIyWlLk6GJQsqaUBKTNV-1" edge="1">
                    <mxGeometry width="50" height="50" relative="1" as="geometry">
                        <mxPoint x="-965" y="198" as="sourcePoint"/>
                        <mxPoint x="-350" y="431" as="targetPoint"/>
                    </mxGeometry>
                </mxCell>
                <mxCell id="237" value="" style="endArrow=classic;html=1;jumpSize=6;strokeWidth=20;startArrow=none;startFill=0;" parent="WIyWlLk6GJQsqaUBKTNV-1" edge="1">
                    <mxGeometry width="50" height="50" relative="1" as="geometry">
                        <mxPoint x="-1150" y="-557" as="sourcePoint"/>
                        <mxPoint x="-1261" y="-318" as="targetPoint"/>
                    </mxGeometry>
                </mxCell>
                <mxCell id="245" value="MaterialCategory" style="swimlane;fontStyle=1;align=center;verticalAlign=top;childLayout=stackLayout;horizontal=1;startSize=26;horizontalStack=0;resizeParent=1;resizeParentMax=0;resizeLast=0;collapsible=1;marginBottom=0;fillColor=#FFFFFF;fontColor=#000000;" parent="WIyWlLk6GJQsqaUBKTNV-1" vertex="1">
                    <mxGeometry x="-2727" y="-1675" width="208" height="78" as="geometry">
                        <mxRectangle x="530" y="280" width="150" height="26" as="alternateBounds"/>
                    </mxGeometry>
                </mxCell>
                <mxCell id="246" value="+ Name: string" style="text;strokeColor=none;align=left;verticalAlign=top;spacingLeft=4;spacingRight=4;overflow=hidden;rotatable=0;points=[[0,0.5],[1,0.5]];portConstraint=eastwest;fillColor=none;fontStyle=0" parent="245" vertex="1">
                    <mxGeometry y="26" width="208" height="26" as="geometry"/>
                </mxCell>
                <mxCell id="251" value="+ Categories: MaterialCategory[ ]" style="text;strokeColor=none;align=left;verticalAlign=top;spacingLeft=4;spacingRight=4;overflow=hidden;rotatable=0;points=[[0,0.5],[1,0.5]];portConstraint=eastwest;fillColor=none;fontStyle=4" parent="245" vertex="1">
                    <mxGeometry y="52" width="208" height="26" as="geometry"/>
                </mxCell>
                <mxCell id="250" value="" style="endArrow=open;endSize=12;dashed=1;html=1;rounded=0;" parent="WIyWlLk6GJQsqaUBKTNV-1" source="142" target="245" edge="1">
                    <mxGeometry x="0.0045" y="105" width="160" relative="1" as="geometry">
                        <mxPoint x="-2568" y="-1692" as="sourcePoint"/>
                        <mxPoint x="-2659" y="-1659" as="targetPoint"/>
                        <mxPoint as="offset"/>
                    </mxGeometry>
                </mxCell>
                <mxCell id="256" value="&lt;p style=&quot;margin: 0px ; margin-top: 4px ; text-align: center&quot;&gt;&lt;i&gt;&amp;lt;&amp;lt;Interface&amp;gt;&amp;gt;&lt;/i&gt;&lt;br&gt;&lt;b&gt;IPublisher&lt;/b&gt;&lt;/p&gt;&lt;hr size=&quot;1&quot;&gt;&lt;p style=&quot;margin: 0px ; margin-left: 4px&quot;&gt;+ PublishMaterial(Material, Amount, Price, Location): void&lt;br&gt;&lt;/p&gt;&lt;p style=&quot;margin: 0px ; margin-left: 4px&quot;&gt;+ RemovePublication(int): bool&lt;br&gt;&lt;/p&gt;" style="verticalAlign=top;align=left;overflow=fill;fontSize=12;fontFamily=Helvetica;html=1;shadow=0;sketch=0;strokeWidth=5;fillColor=none;" parent="WIyWlLk6GJQsqaUBKTNV-1" vertex="1">
                    <mxGeometry x="-1598" y="-1060" width="319" height="84" as="geometry"/>
                </mxCell>
                <mxCell id="257" value="" style="endArrow=block;dashed=1;endFill=0;endSize=12;html=1;fontSize=11;strokeWidth=1;" parent="WIyWlLk6GJQsqaUBKTNV-1" source="108" target="256" edge="1">
                    <mxGeometry width="160" relative="1" as="geometry">
                        <mxPoint x="-1125" y="-1004" as="sourcePoint"/>
                        <mxPoint x="-1285" y="-1004" as="targetPoint"/>
                    </mxGeometry>
                </mxCell>
                <mxCell id="258" value="&lt;p style=&quot;margin: 0px ; margin-top: 4px ; text-align: center&quot;&gt;&lt;i&gt;&amp;lt;&amp;lt;Interface&amp;gt;&amp;gt;&lt;/i&gt;&lt;br&gt;&lt;b&gt;IPublisher&lt;/b&gt;&lt;/p&gt;" style="verticalAlign=top;align=left;overflow=fill;fontSize=12;fontFamily=Helvetica;html=1;shadow=0;sketch=0;strokeWidth=5;fillColor=none;" parent="WIyWlLk6GJQsqaUBKTNV-1" vertex="1">
                    <mxGeometry x="-2341.5" y="-1657" width="104" height="42" as="geometry"/>
                </mxCell>
                <mxCell id="259" value="Invitation" style="text;html=1;strokeColor=none;fillColor=none;align=center;verticalAlign=middle;whiteSpace=wrap;rounded=0;shadow=0;sketch=0;strokeWidth=1;fontSize=120;" parent="WIyWlLk6GJQsqaUBKTNV-1" vertex="1">
                    <mxGeometry x="-1650" y="-290" width="585" height="195" as="geometry"/>
                </mxCell>
                <mxCell id="260" value="" style="endArrow=open;endSize=12;dashed=1;html=1;rounded=0;" parent="WIyWlLk6GJQsqaUBKTNV-1" source="328" target="41" edge="1">
                    <mxGeometry x="0.0045" y="105" width="160" relative="1" as="geometry">
                        <mxPoint x="972" y="460" as="sourcePoint"/>
                        <mxPoint x="1028" y="566" as="targetPoint"/>
                        <mxPoint as="offset"/>
                    </mxGeometry>
                </mxCell>
                <mxCell id="262" value="MessageManager" style="swimlane;fontStyle=1;align=center;verticalAlign=top;childLayout=stackLayout;horizontal=1;startSize=26;horizontalStack=0;resizeParent=1;resizeParentMax=0;resizeLast=0;collapsible=1;marginBottom=0;fillColor=#FFFFFF;fontColor=#000000;" parent="WIyWlLk6GJQsqaUBKTNV-1" vertex="1">
                    <mxGeometry x="622" y="726" width="229" height="86" as="geometry">
                        <mxRectangle x="550" y="283" width="130" height="26" as="alternateBounds"/>
                    </mxGeometry>
                </mxCell>
                <mxCell id="263" value="+ Instance: MessageManager" style="text;strokeColor=none;align=left;verticalAlign=top;spacingLeft=4;spacingRight=4;overflow=hidden;rotatable=0;points=[[0,0.5],[1,0.5]];portConstraint=eastwest;fillColor=none;fontStyle=4" parent="262" vertex="1">
                    <mxGeometry y="26" width="229" height="26" as="geometry"/>
                </mxCell>
                <mxCell id="264" value="" style="line;strokeWidth=1;align=left;verticalAlign=middle;spacingTop=-1;spacingLeft=3;spacingRight=3;rotatable=0;labelPosition=right;points=[];portConstraint=eastwest;fillColor=none;" parent="262" vertex="1">
                    <mxGeometry y="52" width="229" height="8" as="geometry"/>
                </mxCell>
                <mxCell id="317" value="+ ReceiveMessage(Message): void" style="text;strokeColor=none;align=left;verticalAlign=top;spacingLeft=4;spacingRight=4;overflow=hidden;rotatable=0;points=[[0,0.5],[1,0.5]];portConstraint=eastwest;fillColor=none;fontStyle=0" parent="262" vertex="1">
                    <mxGeometry y="60" width="229" height="26" as="geometry"/>
                </mxCell>
                <mxCell id="270" value="Message" style="swimlane;fontStyle=1;align=center;verticalAlign=top;childLayout=stackLayout;horizontal=1;startSize=26;horizontalStack=0;resizeParent=1;resizeParentMax=0;resizeLast=0;collapsible=1;marginBottom=0;fillColor=#FFFFFF;fontColor=#000000;" parent="WIyWlLk6GJQsqaUBKTNV-1" vertex="1">
                    <mxGeometry x="259" y="726" width="160" height="86" as="geometry">
                        <mxRectangle x="300" y="185" width="90" height="26" as="alternateBounds"/>
                    </mxGeometry>
                </mxCell>
                <mxCell id="315" value="+ Text: string" style="text;strokeColor=none;align=left;verticalAlign=top;spacingLeft=4;spacingRight=4;overflow=hidden;rotatable=0;points=[[0,0.5],[1,0.5]];portConstraint=eastwest;fillColor=none;" parent="270" vertex="1">
                    <mxGeometry y="26" width="160" height="26" as="geometry"/>
                </mxCell>
                <mxCell id="54" value="+ Sender: User?" style="text;strokeColor=none;align=left;verticalAlign=top;spacingLeft=4;spacingRight=4;overflow=hidden;rotatable=0;points=[[0,0.5],[1,0.5]];portConstraint=eastwest;fillColor=none;" parent="270" vertex="1">
                    <mxGeometry y="52" width="160" height="26" as="geometry"/>
                </mxCell>
                <mxCell id="274" value="" style="line;strokeWidth=1;align=left;verticalAlign=middle;spacingTop=-1;spacingLeft=3;spacingRight=3;rotatable=0;labelPosition=right;points=[];portConstraint=eastwest;fillColor=none;" parent="270" vertex="1">
                    <mxGeometry y="78" width="160" height="8" as="geometry"/>
                </mxCell>
                <mxCell id="277" value="" style="endArrow=open;endSize=12;dashed=1;html=1;rounded=0;" parent="WIyWlLk6GJQsqaUBKTNV-1" source="278" target="328" edge="1">
                    <mxGeometry x="0.0045" y="105" width="160" relative="1" as="geometry">
                        <mxPoint x="204" y="676" as="sourcePoint"/>
                        <mxPoint x="144" y="731" as="targetPoint"/>
                        <mxPoint as="offset"/>
                    </mxGeometry>
                </mxCell>
                <mxCell id="278" value="UserManager" style="swimlane;fontStyle=1;align=center;verticalAlign=top;childLayout=stackLayout;horizontal=1;startSize=26;horizontalStack=0;resizeParent=1;resizeParentMax=0;resizeLast=0;collapsible=1;marginBottom=0;fillColor=#FFFFFF;fontColor=#000000;" parent="WIyWlLk6GJQsqaUBKTNV-1" vertex="1">
                    <mxGeometry x="-77" y="726" width="170" height="86" as="geometry">
                        <mxRectangle x="80" y="60" width="60" height="26" as="alternateBounds"/>
                    </mxGeometry>
                </mxCell>
                <mxCell id="281" value="+ Users: List&lt;User&gt;" style="text;strokeColor=none;align=left;verticalAlign=top;spacingLeft=4;spacingRight=4;overflow=hidden;rotatable=0;points=[[0,0.5],[1,0.5]];portConstraint=eastwest;fontStyle=4;fillColor=none;" parent="278" vertex="1">
                    <mxGeometry y="26" width="170" height="26" as="geometry"/>
                </mxCell>
                <mxCell id="282" value="" style="line;strokeWidth=1;align=left;verticalAlign=middle;spacingTop=-1;spacingLeft=3;spacingRight=3;rotatable=0;labelPosition=right;points=[];portConstraint=eastwest;fillColor=none;" parent="278" vertex="1">
                    <mxGeometry y="52" width="170" height="8" as="geometry"/>
                </mxCell>
                <mxCell id="57" value="+ GetById(UserId): User?" style="text;strokeColor=none;align=left;verticalAlign=top;spacingLeft=4;spacingRight=4;overflow=hidden;rotatable=0;points=[[0,0.5],[1,0.5]];portConstraint=eastwest;fontStyle=0;fillColor=none;" parent="278" vertex="1">
                    <mxGeometry y="60" width="170" height="26" as="geometry"/>
                </mxCell>
                <mxCell id="284" value="" style="endArrow=open;endSize=12;dashed=1;html=1;rounded=0;" parent="WIyWlLk6GJQsqaUBKTNV-1" source="278" target="4" edge="1">
                    <mxGeometry x="0.0045" y="105" width="160" relative="1" as="geometry">
                        <mxPoint x="281" y="776.6843749999998" as="sourcePoint"/>
                        <mxPoint x="104.99999999999909" y="769.5343750000002" as="targetPoint"/>
                        <mxPoint as="offset"/>
                    </mxGeometry>
                </mxCell>
                <mxCell id="288" value="" style="endArrow=open;endSize=12;dashed=1;html=1;rounded=0;" parent="WIyWlLk6GJQsqaUBKTNV-1" source="SNIHwiunDkbFm7c5sR0U-5" target="SNIHwiunDkbFm7c5sR0U-15" edge="1">
                    <mxGeometry width="160" relative="1" as="geometry">
                        <mxPoint x="132" y="646" as="sourcePoint"/>
                        <mxPoint x="103" y="569" as="targetPoint"/>
                        <Array as="points">
                            <mxPoint x="364" y="477"/>
                        </Array>
                    </mxGeometry>
                </mxCell>
                <mxCell id="291" value="" style="endArrow=open;endSize=12;dashed=1;html=1;rounded=0;" parent="WIyWlLk6GJQsqaUBKTNV-1" source="336" target="309" edge="1">
                    <mxGeometry x="0.0045" y="105" width="160" relative="1" as="geometry">
                        <mxPoint x="1054" y="558" as="sourcePoint"/>
                        <mxPoint x="1730" y="692" as="targetPoint"/>
                        <mxPoint as="offset"/>
                    </mxGeometry>
                </mxCell>
                <mxCell id="293" value="GenericMessaging" style="swimlane;fontStyle=1;align=center;verticalAlign=top;childLayout=stackLayout;horizontal=1;startSize=26;horizontalStack=0;resizeParent=1;resizeParentMax=0;resizeLast=0;collapsible=1;marginBottom=0;fillColor=#FFFFFF;fontColor=#000000;" parent="WIyWlLk6GJQsqaUBKTNV-1" vertex="1">
                    <mxGeometry x="1556" y="480" width="209" height="112" as="geometry">
                        <mxRectangle x="1157" y="-151" width="140" height="26" as="alternateBounds"/>
                    </mxGeometry>
                </mxCell>
                <mxCell id="294" value="" style="line;strokeWidth=1;align=left;verticalAlign=middle;spacingTop=-1;spacingLeft=3;spacingRight=3;rotatable=0;labelPosition=right;points=[];portConstraint=eastwest;fillColor=none;" parent="293" vertex="1">
                    <mxGeometry y="26" width="209" height="8" as="geometry"/>
                </mxCell>
                <mxCell id="341" value="- platforms: MessagingPlatform[ ]" style="text;strokeColor=none;align=left;verticalAlign=top;spacingLeft=4;spacingRight=4;overflow=hidden;rotatable=0;points=[[0,0.5],[1,0.5]];portConstraint=eastwest;fillColor=none;" vertex="1" parent="293">
                    <mxGeometry y="34" width="209" height="26" as="geometry"/>
                </mxCell>
                <mxCell id="295" value="+ ReceiveMessage(Message): void" style="text;strokeColor=none;align=left;verticalAlign=top;spacingLeft=4;spacingRight=4;overflow=hidden;rotatable=0;points=[[0,0.5],[1,0.5]];portConstraint=eastwest;fillColor=none;" parent="293" vertex="1">
                    <mxGeometry y="60" width="209" height="26" as="geometry"/>
                </mxCell>
                <mxCell id="296" value="+ SendMessage(Message): void" style="text;strokeColor=none;align=left;verticalAlign=top;spacingLeft=4;spacingRight=4;overflow=hidden;rotatable=0;points=[[0,0.5],[1,0.5]];portConstraint=eastwest;fillColor=none;" parent="293" vertex="1">
                    <mxGeometry y="86" width="209" height="26" as="geometry"/>
                </mxCell>
                <mxCell id="297" value="MessagingPlatform&lt;TId&gt;" style="swimlane;fontStyle=1;align=center;verticalAlign=top;childLayout=stackLayout;horizontal=1;startSize=26;horizontalStack=0;resizeParent=1;resizeParentMax=0;resizeLast=0;collapsible=1;marginBottom=0;fillColor=#FFFFFF;fontColor=#000000;" parent="WIyWlLk6GJQsqaUBKTNV-1" vertex="1">
                    <mxGeometry x="2335" y="519" width="183" height="34" as="geometry">
                        <mxRectangle x="1157" y="-151" width="140" height="26" as="alternateBounds"/>
                    </mxGeometry>
                </mxCell>
                <mxCell id="298" value="" style="line;strokeWidth=1;align=left;verticalAlign=middle;spacingTop=-1;spacingLeft=3;spacingRight=3;rotatable=0;labelPosition=right;points=[];portConstraint=eastwest;fillColor=none;" parent="297" vertex="1">
                    <mxGeometry y="26" width="183" height="8" as="geometry"/>
                </mxCell>
                <mxCell id="299" value="TelegramPlatform" style="swimlane;fontStyle=1;align=center;verticalAlign=top;childLayout=stackLayout;horizontal=1;startSize=26;horizontalStack=0;resizeParent=1;resizeParentMax=0;resizeLast=0;collapsible=1;marginBottom=0;fillColor=#FFFFFF;fontColor=#000000;" parent="WIyWlLk6GJQsqaUBKTNV-1" vertex="1">
                    <mxGeometry x="2624" y="351" width="174" height="60" as="geometry">
                        <mxRectangle x="1308" y="-250" width="135" height="26" as="alternateBounds"/>
                    </mxGeometry>
                </mxCell>
                <mxCell id="300" value="+ Instance: TelegramPlatform" style="text;strokeColor=none;align=left;verticalAlign=top;spacingLeft=4;spacingRight=4;overflow=hidden;rotatable=0;points=[[0,0.5],[1,0.5]];portConstraint=eastwest;fillColor=none;fontStyle=4" parent="299" vertex="1">
                    <mxGeometry y="26" width="174" height="26" as="geometry"/>
                </mxCell>
                <mxCell id="301" value="" style="line;strokeWidth=1;align=left;verticalAlign=middle;spacingTop=-1;spacingLeft=3;spacingRight=3;rotatable=0;labelPosition=right;points=[];portConstraint=eastwest;fillColor=none;" parent="299" vertex="1">
                    <mxGeometry y="52" width="174" height="8" as="geometry"/>
                </mxCell>
                <mxCell id="302" value="Extends" style="endArrow=block;endSize=16;endFill=0;html=1;" parent="WIyWlLk6GJQsqaUBKTNV-1" source="299" target="297" edge="1">
                    <mxGeometry width="160" relative="1" as="geometry">
                        <mxPoint x="2380" y="459" as="sourcePoint"/>
                        <mxPoint x="2500" y="459" as="targetPoint"/>
                    </mxGeometry>
                </mxCell>
                <mxCell id="303" value="WhatsAppPlatform" style="swimlane;fontStyle=1;align=center;verticalAlign=top;childLayout=stackLayout;horizontal=1;startSize=26;horizontalStack=0;resizeParent=1;resizeParentMax=0;resizeLast=0;collapsible=1;marginBottom=0;fillColor=#FFFFFF;fontColor=#000000;" parent="WIyWlLk6GJQsqaUBKTNV-1" vertex="1">
                    <mxGeometry x="2624" y="641" width="174" height="60" as="geometry">
                        <mxRectangle x="1308" y="-250" width="135" height="26" as="alternateBounds"/>
                    </mxGeometry>
                </mxCell>
                <mxCell id="304" value="+ Instance: WhatsAppPlatform" style="text;strokeColor=none;align=left;verticalAlign=top;spacingLeft=4;spacingRight=4;overflow=hidden;rotatable=0;points=[[0,0.5],[1,0.5]];portConstraint=eastwest;fillColor=none;fontStyle=4" parent="303" vertex="1">
                    <mxGeometry y="26" width="174" height="26" as="geometry"/>
                </mxCell>
                <mxCell id="305" value="" style="line;strokeWidth=1;align=left;verticalAlign=middle;spacingTop=-1;spacingLeft=3;spacingRight=3;rotatable=0;labelPosition=right;points=[];portConstraint=eastwest;fillColor=none;" parent="303" vertex="1">
                    <mxGeometry y="52" width="174" height="8" as="geometry"/>
                </mxCell>
                <mxCell id="306" value="Extends" style="endArrow=block;endSize=16;endFill=0;html=1;" parent="WIyWlLk6GJQsqaUBKTNV-1" source="303" target="297" edge="1">
                    <mxGeometry width="160" relative="1" as="geometry">
                        <mxPoint x="2436.5" y="432" as="sourcePoint"/>
                        <mxPoint x="2528" y="592" as="targetPoint"/>
                    </mxGeometry>
                </mxCell>
                <mxCell id="307" value="&lt;p style=&quot;margin: 0px ; margin-top: 4px ; text-align: center&quot;&gt;&lt;i&gt;&amp;lt;&amp;lt;Interface&amp;gt;&amp;gt;&lt;/i&gt;&lt;br&gt;&lt;b&gt;IMessageReceiver&amp;lt;TId&amp;gt;&lt;/b&gt;&lt;/p&gt;&lt;hr size=&quot;1&quot;&gt;&lt;p style=&quot;margin: 0px ; margin-left: 4px&quot;&gt;&lt;/p&gt;&lt;p style=&quot;margin: 0px ; margin-left: 4px&quot;&gt;+ ToUserId(TId): UserId&lt;br&gt;&lt;/p&gt;&lt;p style=&quot;margin: 0px ; margin-left: 4px&quot;&gt;+ OnGetMessage(string, TId): void&lt;/p&gt;" style="verticalAlign=top;align=left;overflow=fill;fontSize=12;fontFamily=Helvetica;html=1;" parent="WIyWlLk6GJQsqaUBKTNV-1" vertex="1">
                    <mxGeometry x="2328" y="729" width="197" height="80" as="geometry"/>
                </mxCell>
                <mxCell id="308" value="&lt;p style=&quot;margin: 0px ; margin-top: 4px ; text-align: center&quot;&gt;&lt;i&gt;&amp;lt;&amp;lt;Interface&amp;gt;&amp;gt;&lt;/i&gt;&lt;br&gt;&lt;b&gt;IMessageSender&amp;lt;TId&amp;gt;&lt;/b&gt;&lt;/p&gt;&lt;hr size=&quot;1&quot;&gt;&lt;p style=&quot;margin: 0px ; margin-left: 4px&quot;&gt;&lt;span&gt;sendMessage(string, TId): void&lt;/span&gt;&lt;br&gt;&lt;/p&gt;" style="verticalAlign=top;align=left;overflow=fill;fontSize=12;fontFamily=Helvetica;html=1;" parent="WIyWlLk6GJQsqaUBKTNV-1" vertex="1">
                    <mxGeometry x="2337" y="267" width="179" height="64" as="geometry"/>
                </mxCell>
                <mxCell id="309" value="&lt;p style=&quot;margin: 0px ; margin-top: 4px ; text-align: center&quot;&gt;&lt;i&gt;&amp;lt;&amp;lt;Interface&amp;gt;&amp;gt;&lt;/i&gt;&lt;br&gt;&lt;b&gt;GenericReceiver&lt;/b&gt;&lt;/p&gt;&lt;hr size=&quot;1&quot;&gt;&lt;p style=&quot;margin: 0px ; margin-left: 4px&quot;&gt;&lt;/p&gt;&lt;p style=&quot;margin: 0px ; margin-left: 4px&quot;&gt;&lt;span&gt;+ OnGetMessage(Message, MessageManager): void&lt;/span&gt;&lt;br&gt;&lt;/p&gt;" style="verticalAlign=top;align=left;overflow=fill;fontSize=12;fontFamily=Helvetica;html=1;" parent="WIyWlLk6GJQsqaUBKTNV-1" vertex="1">
                    <mxGeometry x="1512" y="729.5" width="297" height="79" as="geometry"/>
                </mxCell>
                <mxCell id="310" value="" style="endArrow=block;dashed=1;endFill=0;endSize=12;html=1;" parent="WIyWlLk6GJQsqaUBKTNV-1" source="293" target="309" edge="1">
                    <mxGeometry width="160" relative="1" as="geometry">
                        <mxPoint x="2096.499999999999" y="550" as="sourcePoint"/>
                        <mxPoint x="2096.5" y="746" as="targetPoint"/>
                    </mxGeometry>
                </mxCell>
                <mxCell id="311" value="&lt;p style=&quot;margin: 0px ; margin-top: 4px ; text-align: center&quot;&gt;&lt;i&gt;&amp;lt;&amp;lt;Interface&amp;gt;&amp;gt;&lt;/i&gt;&lt;br&gt;&lt;b&gt;GenericSender&lt;/b&gt;&lt;/p&gt;&lt;hr size=&quot;1&quot;&gt;&lt;p style=&quot;margin: 0px ; margin-left: 4px&quot;&gt;&lt;/p&gt;&lt;p style=&quot;margin: 0px ; margin-left: 4px&quot;&gt;&lt;span&gt;+ SendMessage(Message): void&lt;/span&gt;&lt;br&gt;&lt;/p&gt;" style="verticalAlign=top;align=left;overflow=fill;fontSize=12;fontFamily=Helvetica;html=1;" parent="WIyWlLk6GJQsqaUBKTNV-1" vertex="1">
                    <mxGeometry x="1564" y="262" width="193" height="74" as="geometry"/>
                </mxCell>
                <mxCell id="312" value="" style="endArrow=block;dashed=1;endFill=0;endSize=12;html=1;" parent="WIyWlLk6GJQsqaUBKTNV-1" source="293" target="311" edge="1">
                    <mxGeometry width="160" relative="1" as="geometry">
                        <mxPoint x="1670.5" y="576" as="sourcePoint"/>
                        <mxPoint x="1670.500000000001" y="751" as="targetPoint"/>
                    </mxGeometry>
                </mxCell>
                <mxCell id="313" value="" style="endArrow=open;endSize=12;dashed=1;html=1;rounded=0;" parent="WIyWlLk6GJQsqaUBKTNV-1" source="311" target="335" edge="1">
                    <mxGeometry x="0.0045" y="105" width="160" relative="1" as="geometry">
                        <mxPoint x="1968" y="790.5" as="sourcePoint"/>
                        <mxPoint x="1819" y="790.5" as="targetPoint"/>
                        <mxPoint as="offset"/>
                    </mxGeometry>
                </mxCell>
                <mxCell id="314" value="+ SendMessage: Func&lt;string&gt;" style="text;strokeColor=none;align=left;verticalAlign=top;spacingLeft=4;spacingRight=4;overflow=hidden;rotatable=0;points=[[0,0.5],[1,0.5]];portConstraint=eastwest;fillColor=none;" parent="WIyWlLk6GJQsqaUBKTNV-1" vertex="1">
                    <mxGeometry x="-239" y="919" width="174" height="26" as="geometry"/>
                </mxCell>
                <mxCell id="319" value="UserId" style="swimlane;fontStyle=1;align=center;verticalAlign=top;childLayout=stackLayout;horizontal=1;startSize=26;horizontalStack=0;resizeParent=1;resizeParentMax=0;resizeLast=0;collapsible=1;marginBottom=0;fillColor=#FFFFFF;fontColor=#000000;" parent="WIyWlLk6GJQsqaUBKTNV-1" vertex="1" collapsed="1">
                    <mxGeometry x="2075.5" y="385" width="66" height="26" as="geometry">
                        <mxRectangle x="1511" y="-136" width="181" height="112" as="alternateBounds"/>
                    </mxGeometry>
                </mxCell>
                <mxCell id="321" value="" style="endArrow=open;endSize=12;dashed=1;html=1;rounded=0;" parent="WIyWlLk6GJQsqaUBKTNV-1" source="335" target="319" edge="1">
                    <mxGeometry x="0.0045" y="105" width="160" relative="1" as="geometry">
                        <mxPoint x="1903" y="371" as="sourcePoint"/>
                        <mxPoint x="1930" y="586" as="targetPoint"/>
                        <mxPoint as="offset"/>
                    </mxGeometry>
                </mxCell>
                <mxCell id="327" value="MessageManager" style="swimlane;fontStyle=1;align=center;verticalAlign=top;childLayout=stackLayout;horizontal=1;startSize=26;horizontalStack=0;resizeParent=1;resizeParentMax=0;resizeLast=0;collapsible=1;marginBottom=0;fillColor=#FFFFFF;fontColor=#000000;" parent="WIyWlLk6GJQsqaUBKTNV-1" vertex="1" collapsed="1">
                    <mxGeometry x="-1126" y="205" width="130" height="26" as="geometry">
                        <mxRectangle x="-324" y="405" width="229" height="86" as="alternateBounds"/>
                    </mxGeometry>
                </mxCell>
                <mxCell id="328" value="&lt;p style=&quot;margin: 0px ; margin-top: 4px ; text-align: center&quot;&gt;&lt;i&gt;&amp;lt;&amp;lt;Interface&amp;gt;&amp;gt;&lt;/i&gt;&lt;br&gt;&lt;b&gt;IIdentified&lt;/b&gt;&lt;/p&gt;&lt;hr size=&quot;1&quot;&gt;&lt;p style=&quot;margin: 0px ; margin-left: 4px&quot;&gt;&lt;/p&gt;&lt;p style=&quot;margin: 0px ; margin-left: 4px&quot;&gt;+ Id: UserId&lt;/p&gt;&lt;br&gt;&lt;p style=&quot;margin: 0px 0px 0px 4px&quot;&gt;&lt;/p&gt;&lt;p style=&quot;margin: 0px 0px 0px 4px&quot;&gt;&lt;/p&gt;&lt;p style=&quot;margin: 0px 0px 0px 4px&quot;&gt;&lt;/p&gt;&lt;p style=&quot;margin: 0px 0px 0px 4px&quot;&gt;&lt;/p&gt;&lt;p style=&quot;margin: 0px 0px 0px 4px&quot;&gt;&lt;/p&gt;&lt;p style=&quot;margin: 0px 0px 0px 4px&quot;&gt;&lt;/p&gt;" style="verticalAlign=top;align=left;overflow=fill;fontSize=12;fontFamily=Helvetica;html=1;" parent="WIyWlLk6GJQsqaUBKTNV-1" vertex="1">
                    <mxGeometry x="292" y="525.5" width="94" height="67" as="geometry"/>
                </mxCell>
                <mxCell id="329" value="" style="endArrow=block;dashed=1;endFill=0;endSize=12;html=1;" parent="WIyWlLk6GJQsqaUBKTNV-1" source="SNIHwiunDkbFm7c5sR0U-15" target="328" edge="1">
                    <mxGeometry width="160" relative="1" as="geometry">
                        <mxPoint x="499" y="370" as="sourcePoint"/>
                        <mxPoint x="659" y="370" as="targetPoint"/>
                    </mxGeometry>
                </mxCell>
                <mxCell id="330" value="" style="endArrow=block;dashed=1;endFill=0;endSize=12;html=1;" parent="WIyWlLk6GJQsqaUBKTNV-1" source="SNIHwiunDkbFm7c5sR0U-5" target="328" edge="1">
                    <mxGeometry width="160" relative="1" as="geometry">
                        <mxPoint x="582" y="568.9999999999995" as="sourcePoint"/>
                        <mxPoint x="201" y="654" as="targetPoint"/>
                    </mxGeometry>
                </mxCell>
                <mxCell id="331" value="" style="endArrow=block;dashed=1;endFill=0;endSize=12;html=1;" parent="WIyWlLk6GJQsqaUBKTNV-1" source="270" target="328" edge="1">
                    <mxGeometry width="160" relative="1" as="geometry">
                        <mxPoint x="582" y="568.9999999999995" as="sourcePoint"/>
                        <mxPoint x="396" y="568.9999999999995" as="targetPoint"/>
                    </mxGeometry>
                </mxCell>
                <mxCell id="334" value="" style="endArrow=open;endSize=12;dashed=1;html=1;rounded=0;" parent="WIyWlLk6GJQsqaUBKTNV-1" source="SNIHwiunDkbFm7c5sR0U-15" target="311" edge="1">
                    <mxGeometry x="0.0045" y="105" width="160" relative="1" as="geometry">
                        <mxPoint x="912" y="569.0000000000009" as="sourcePoint"/>
                        <mxPoint x="1031" y="569.0000000000009" as="targetPoint"/>
                        <mxPoint as="offset"/>
                    </mxGeometry>
                </mxCell>
                <mxCell id="335" value="&lt;p style=&quot;margin: 0px ; margin-top: 4px ; text-align: center&quot;&gt;&lt;i&gt;&amp;lt;&amp;lt;Interface&amp;gt;&amp;gt;&lt;/i&gt;&lt;br&gt;&lt;b&gt;IMessageSender&lt;/b&gt;&lt;/p&gt;&lt;hr size=&quot;1&quot;&gt;&lt;p style=&quot;margin: 0px ; margin-left: 4px&quot;&gt;+ SendMessage(Message): bool&lt;/p&gt;" style="verticalAlign=top;align=left;overflow=fill;fontSize=12;fontFamily=Helvetica;html=1;" vertex="1" parent="WIyWlLk6GJQsqaUBKTNV-1">
                    <mxGeometry x="2015" y="267" width="187" height="64" as="geometry"/>
                </mxCell>
                <mxCell id="336" value="&lt;p style=&quot;margin: 0px ; margin-top: 4px ; text-align: center&quot;&gt;&lt;i&gt;&amp;lt;&amp;lt;Interface&amp;gt;&amp;gt;&lt;/i&gt;&lt;br&gt;&lt;b&gt;IMessageReceiver&lt;/b&gt;&lt;/p&gt;&lt;hr size=&quot;1&quot;&gt;&lt;p style=&quot;margin: 0px ; margin-left: 4px&quot;&gt;&lt;/p&gt;&lt;p style=&quot;margin: 0px ; margin-left: 4px&quot;&gt;&lt;span&gt;+ OnGetMessage(Message): void&lt;/span&gt;&lt;br&gt;&lt;/p&gt;" style="verticalAlign=top;align=left;overflow=fill;fontSize=12;fontFamily=Helvetica;html=1;" vertex="1" parent="WIyWlLk6GJQsqaUBKTNV-1">
                    <mxGeometry x="2014" y="735" width="189" height="68" as="geometry"/>
                </mxCell>
                <mxCell id="337" value="" style="endArrow=open;endSize=12;dashed=1;html=1;rounded=0;" edge="1" parent="WIyWlLk6GJQsqaUBKTNV-1" source="307" target="336">
                    <mxGeometry x="0.0045" y="105" width="160" relative="1" as="geometry">
                        <mxPoint x="1990" y="779" as="sourcePoint"/>
                        <mxPoint x="1818.999999999999" y="779" as="targetPoint"/>
                        <mxPoint as="offset"/>
                        <Array as="points">
                            <mxPoint x="2267" y="812"/>
                        </Array>
                    </mxGeometry>
                </mxCell>
                <mxCell id="338" value="" style="endArrow=open;endSize=12;dashed=1;html=1;rounded=0;" edge="1" parent="WIyWlLk6GJQsqaUBKTNV-1" source="335" target="308">
                    <mxGeometry x="0.0045" y="105" width="160" relative="1" as="geometry">
                        <mxPoint x="1767" y="309" as="sourcePoint"/>
                        <mxPoint x="2328.999999999999" y="309" as="targetPoint"/>
                        <mxPoint as="offset"/>
                        <Array as="points">
                            <mxPoint x="2266" y="255"/>
                        </Array>
                    </mxGeometry>
                </mxCell>
                <mxCell id="342" value="" style="endArrow=open;endSize=12;dashed=1;html=1;rounded=0;" edge="1" parent="WIyWlLk6GJQsqaUBKTNV-1" source="293" target="297">
                    <mxGeometry x="0.0045" y="105" width="160" relative="1" as="geometry">
                        <mxPoint x="1767" y="309" as="sourcePoint"/>
                        <mxPoint x="2025" y="309" as="targetPoint"/>
                        <mxPoint as="offset"/>
                    </mxGeometry>
                </mxCell>
                <mxCell id="343" value="" style="endArrow=block;dashed=1;endFill=0;endSize=12;html=1;" edge="1" parent="WIyWlLk6GJQsqaUBKTNV-1" source="308" target="335">
                    <mxGeometry width="160" relative="1" as="geometry">
                        <mxPoint x="2436.499999999999" y="529" as="sourcePoint"/>
                        <mxPoint x="2436.499999999999" y="341.00000000000045" as="targetPoint"/>
                    </mxGeometry>
                </mxCell>
                <mxCell id="344" value="" style="endArrow=block;dashed=1;endFill=0;endSize=12;html=1;" edge="1" parent="WIyWlLk6GJQsqaUBKTNV-1" source="307" target="336">
                    <mxGeometry width="160" relative="1" as="geometry">
                        <mxPoint x="2247" y="659" as="sourcePoint"/>
                        <mxPoint x="2346" y="659" as="targetPoint"/>
                    </mxGeometry>
                </mxCell>
            </root>
        </mxGraphModel>
    </diagram>
</mxfile>